<svg viewBox="0 0 100 100" fill="none" xmlns="http://www.w3.org/2000/svg">
  <path d="M15 78 L42 22 C43.5 19 46.5 19 48 22 L58 42 L34 68 C31 71.5 25 72 20 68 L15 78 Z" fill="url(#blueGrad)" />
  <path d="M15 78 C17.5 81.5 24 81 28 78 L52 50 L42 50 L15 78 Z" fill="url(#cyanGrad)" />
  <path d="M44 46 L54 22 C55.5 19 58.5 19 60 22 L83 72 C85.5 77 81.5 82 76 82 H62 L44 46 Z" fill="url(#purpleGrad)" />
  <defs>
    <linearGradient id="blueGrad" x1="0%" y1="0%" x2="100%" y2="100%">
      <stop offset="0%" stop-color="#00c6ff" />
      <stop offset="100%" stop-color="#0072ff" />
    </linearGradient>
    <linearGradient id="cyanGrad" x1="0%" y1="0%" x2="100%" y2="100%">
      <stop offset="0%" stop-color="#00f2fe" />
      <stop offset="100%" stop-color="#4facfe" />
    </linearGradient>
    <linearGradient id="purpleGrad" x1="0%" y1="0%" x2="100%" y2="100%">
      <stop offset="0%" stop-color="#b155ff" />
      <stop offset="100%" stop-color="#6d28d9" />
    </linearGradient>
  </defs>
</svg>